<?xml version="1.0"?>
<svg xmlns="http://www.w3.org/2000/svg" id="Icons" viewBox="0 0 60 60"><path d="M24,0a24,24,0,0,0,0,48,23.611,23.611,0,0,0,9.893-2.141l4.881,12.917A1.9,1.9,0,0,0,40.471,60l.088,0a1.9,1.9,0,0,0,1.712-1.045l3.854-7.176,4.318,4.32a3.066,3.066,0,0,0,4.236,0l1.42-1.42a2.992,2.992,0,0,0,0-4.235l-4.32-4.319,7.16-3.847A1.922,1.922,0,0,0,60,40.471a1.9,1.9,0,0,0-1.223-1.7L45.859,33.893A23.611,23.611,0,0,0,48,24,24.028,24.028,0,0,0,24,0ZM35.988,23a46.8,46.8,0,0,0-.709-7.355q4.417-.273,8.737-.757A21.845,21.845,0,0,1,45.975,23Zm-5.406,5.119a1.918,1.918,0,0,0-2.459,2.473l.559,1.48q-1.876-.051-3.682-.063V25h8.983c-.03,1.468-.124,2.906-.285,4.3ZM25,2.115c3.343.77,6.257,5.342,7.809,11.654q-3.889.188-7.809.212Zm-2,0V13.981q-3.916-.021-7.809-.212C16.743,7.457,19.657,2.885,23,2.115Zm0,13.871V23H14.012a44.132,44.132,0,0,1,.747-7.245Q18.857,15.962,23,15.986Zm0,16.028c-2.711.015-5.471.092-8.242.232A44.024,44.024,0,0,1,14.024,25H23ZM12.012,23H2.025a21.845,21.845,0,0,1,1.959-8.112q4.314.485,8.737.757A46.8,46.8,0,0,0,12.012,23Zm.012,2a46.281,46.281,0,0,0,.722,7.361c-2.981.184-5.918.434-8.761.753A21.832,21.832,0,0,1,2.025,25ZM23,34.014V45.867c-3.238-.771-6.242-5.21-7.823-11.638C17.808,34.1,20.426,34.029,23,34.014Zm2,11.868V34.009q2.17.014,4.446.083l1.828,4.838C29.6,42.872,27.36,45.336,25,45.882ZM25,23V15.986q4.14-.023,8.241-.231A44.132,44.132,0,0,1,33.988,23ZM43.028,12.978c-2.689.29-5.409.525-8.158.688-1.1-4.706-2.93-8.533-5.221-10.927A22.088,22.088,0,0,1,43.028,12.978ZM18.351,2.739C16.06,5.133,14.227,8.96,13.13,13.667c-2.748-.164-5.469-.4-8.158-.689A22.088,22.088,0,0,1,18.351,2.739ZM4.974,35.024c2.663-.286,5.4-.519,8.175-.687,1.128,4.816,2.949,8.576,5.19,10.921A22.082,22.082,0,0,1,4.974,35.024ZM29.625,45.269a16.618,16.618,0,0,0,2.629-3.746l.93,2.459A21.573,21.573,0,0,1,29.625,45.269ZM49.647,45a1,1,0,0,0-.233,1.588l5.271,5.271a.992.992,0,0,1,0,1.406l-1.42,1.42a1.017,1.017,0,0,1-1.407,0l-5.27-5.271A1,1,0,0,0,45,49.647L40.6,57.936,30.061,30.061,57.884,40.575ZM35.621,30.024A47.059,47.059,0,0,0,35.983,25h9.988a21.543,21.543,0,0,1-1.989,8.184Z"/></svg>
